<svg id="8bc0187d-aeb6-4ce0-9f58-6c767fa2c1f9" data-name="Layer 1" xmlns="http://www.w3.org/2000/svg" viewBox="0 0 160 160"><title>Artboard 1</title><path d="M154,6V154H6V6H154m6-6H0V160H160V0Z"/><path d="M31.24,27.38h9.63V45.1L57.16,27.38H69.07L51.91,46.45Q54.15,49.54,60.12,58t8.95,12.55H57.84l-12.65-17L40.87,58.3V70.52H31.24Z"/><path d="M117,108.59h9.36v14.8q-6.19,6.93-17.18,6.92a21.22,21.22,0,0,1-15.42-6.08,20.57,20.57,0,0,1-6.24-15.37,20.74,20.74,0,0,1,6.36-15.48,21.12,21.12,0,0,1,15.33-6.21,22.65,22.65,0,0,1,15.6,5.91l-4.83,7a18.53,18.53,0,0,0-5.16-3.37,13.76,13.76,0,0,0-5.1-.93,12.23,12.23,0,0,0-9,3.61,12.8,12.8,0,0,0-3.64,9.52,12.9,12.9,0,0,0,3.49,9.46A11.28,11.28,0,0,0,109,121.9a16,16,0,0,0,8.06-1.85Z"/><path d="M126.39,70.52h-9.62V58.3l-4.32-4.81-12.66,17H88.56q3-4.12,9-12.55t8.21-11.52L88.56,27.38h11.91l16.3,17.72V27.38h9.62Z"/><path d="M40.61,120.05a16,16,0,0,0,8,1.85A11.3,11.3,0,0,0,57,118.35a12.9,12.9,0,0,0,3.49-9.46,12.84,12.84,0,0,0-3.64-9.52,12.25,12.25,0,0,0-9-3.61,13.76,13.76,0,0,0-5.1.93,18.39,18.39,0,0,0-5.16,3.37l-4.84-7A22.69,22.69,0,0,1,48.4,87.17a21.15,21.15,0,0,1,15.33,6.21,20.74,20.74,0,0,1,6.36,15.48,20.57,20.57,0,0,1-6.24,15.37,21.26,21.26,0,0,1-15.43,6.08q-11,0-17.18-6.92v-14.8h9.37Z"/></svg>