<svg id="f3800bde-99bd-44c0-97c2-bfdc48722cf0" data-name="Layer 1" xmlns="http://www.w3.org/2000/svg" viewBox="0 0 160 160"><title>Artboard 1</title><path d="M154,6V154H6V6H154m6-6H0V160H160V0Z"/><path d="M13,9.86H27.9V37.24L53.08,9.86H71.49L45,39.33q3.44,4.77,12.69,17.79T71.49,76.53H54.13L34.58,50.21,27.9,57.65V76.53H13Z"/><path d="M130.14,115.27h14.47v22.87q-9.59,10.7-26.55,10.7-14.2,0-23.84-9.41t-9.63-23.74q0-14.34,9.82-23.93a32.66,32.66,0,0,1,23.7-9.59,35.06,35.06,0,0,1,24.11,9.12l-7.47,10.8a28.47,28.47,0,0,0-8-5.22,21.39,21.39,0,0,0-7.88-1.43A18.92,18.92,0,0,0,105.06,101q-5.62,5.58-5.63,14.71t5.4,14.62a17.42,17.42,0,0,0,12.86,5.48A24.77,24.77,0,0,0,130.14,133Z"/></svg>